<svg aria-hidden="true" style="position: absolute; width: 0; height: 0; overflow: hidden;" version="1.1" xmlns="http://www.w3.org/2000/svg" xmlns:xlink="http://www.w3.org/1999/xlink">
<defs>
<symbol id="icn-pay-alfa" viewBox="0 0 32 32">

<path fill="#f00" style="fill: var(--color1, #f00)" d="M8.699 20.378c0.149 0.056 2.619 1.014 2.762 1.071s0.292-0.030 0.339-0.16c0.047-0.129 1.076-2.958 1.192-3.275h7.010c0.116 0.317 1.134 3.142 1.186 3.275 0.039 0.103 0.136 0.175 0.251 0.175 0.032 0 0.062-0.005 0.090-0.015l-0.002 0.001 2.761-1.071c0.169-0.063 0.194-0.243 0.154-0.351-0.141-0.39-4.872-13.346-5.076-13.899-0.48-1.304-1.051-2.609-2.872-2.609s-2.415 1.324-2.877 2.61c-0.238 0.664-4.898 13.412-5.071 13.898-0.011 0.029-0.018 0.062-0.018 0.097 0 0.114 0.070 0.212 0.169 0.253l0.002 0.001zM16.48 7.751h0.028l2.379 7.117h-4.779l2.372-7.117zM24.816 26.703h-16.645c-0.145 0-0.264 0.122-0.264 0.273v3.026c0 0.151 0.118 0.273 0.264 0.273h16.645c0.146 0 0.264-0.122 0.264-0.273v-3.028c0-0.149-0.118-0.271-0.264-0.271z"></path>
</symbol>
<symbol id="icn-pay-maestro" viewBox="0 0 32 32">

<path fill="#07a9e2" style="fill: var(--color2, #07a9e2)" d="M16 23c1.9-1.7 3.1-4.2 3.1-7s-1.2-5.25-3.1-7c-1.65-1.5-3.9-2.45-6.3-2.45-5.2 0-9.45 4.25-9.45 9.45s4.25 9.4 9.45 9.4c2.4 0.050 4.65-0.9 6.3-2.4v0z"></path>
<path fill="#009ddd" style="fill: var(--color3, #009ddd)" d="M0.25 16c0 5.2 4.25 9.4 9.45 9.4 2.45 0 4.65-0.9 6.3-2.45v0c1.9-1.7 3.1-4.2 3.1-7s-1.2-5.2-3.1-6.95c-1.65-1.5-3.9-2.45-6.3-2.45z"></path>
<path fill="#0284cc" style="fill: var(--color4, #0284cc)" d="M16 9c-1.65-1.5-3.9-2.45-6.3-2.45-0.15 0-0.3 0-0.45 0-2.95 2.15-4.85 5.6-4.85 9.45s1.9 7.3 4.8 9.4c0.15 0 0.3 0 0.45 0 2.45 0 4.65-0.9 6.3-2.45 1.9-1.7 3.1-4.2 3.1-7s-1.15-5.2-3.050-6.95z"></path>
<path fill="#ff2957" style="fill: var(--color5, #ff2957)" d="M22.35 6.55c-2.45 0-4.65 0.9-6.35 2.45-0.35 0.3-0.65 0.65-0.95 1h1.9c0.25 0.3 0.5 0.65 0.7 1h-3.35c-0.2 0.35-0.4 0.65-0.55 1h4.45c0.15 0.35 0.3 0.65 0.4 1h-5.2c-0.1 0.35-0.2 0.65-0.3 1h5.8c0.15 0.65 0.2 1.3 0.2 2 0 1.050-0.15 2.050-0.5 3h-5.2c0.1 0.35 0.25 0.65 0.4 1h4.45c-0.15 0.35-0.35 0.7-0.55 1h-3.35c0.2 0.35 0.45 0.7 0.7 1h1.9c-0.3 0.35-0.6 0.7-0.95 1 1.7 1.5 3.9 2.45 6.35 2.45 5.2 0 9.4-4.2 9.4-9.4 0-5.25-4.2-9.5-9.4-9.5v0z"></path>
<path fill="#ed1c2e" style="fill: var(--color6, #ed1c2e)" d="M22.35 6.55v0c-2.45 0-4.65 0.9-6.35 2.45-0.35 0.3-0.65 0.65-0.95 1h1.9c0.25 0.3 0.5 0.65 0.7 1h-3.35c-0.2 0.35-0.4 0.65-0.55 1h4.45c0.15 0.35 0.3 0.65 0.4 1h-5.2c-0.1 0.35-0.2 0.65-0.3 1h5.8c0.15 0.65 0.2 1.3 0.2 2 0 1.050-0.15 2.050-0.5 3h-5.2c0.1 0.35 0.25 0.65 0.4 1h4.45c-0.15 0.35-0.35 0.7-0.55 1h-3.35c0.2 0.35 0.45 0.7 0.7 1h1.9c-0.3 0.35-0.6 0.7-0.95 1 1.7 1.5 3.9 2.45 6.35 2.45 5.2 0 9.4-4.2 9.4-9.4z"></path>
<path fill="#0466b5" style="fill: var(--color7, #0466b5)" d="M16 23c1.9-1.7 3.1-4.2 3.1-7s-1.2-5.25-3.1-7v14z"></path>
<path fill="#fff" style="fill: var(--color8, #fff)" d="M28.5 18.050c0-0.15 0.15-0.3 0.3-0.3s0.3 0.15 0.3 0.3c0 0.15-0.15 0.3-0.3 0.3s-0.3-0.15-0.3-0.3v0zM28.8 18.3c0.15 0 0.2-0.1 0.2-0.25s-0.1-0.2-0.2-0.2c-0.15 0-0.25 0.1-0.25 0.2s0.15 0.25 0.25 0.25v0zM28.8 18.15h-0.050v-0.25h0.1c0.050 0 0.050 0 0.050 0s0.050 0.050 0.050 0.050c0 0.050 0 0.050-0.050 0.050l0.050 0.1h-0.050l-0.050-0.1h-0.050v0.15zM28.8 18v0c0.050 0 0.050 0 0.050 0s0 0 0-0.050v0c0 0-0.050 0-0.050 0v0 0.050z"></path>
<path fill="#d1094b" style="fill: var(--color9, #d1094b)" d="M16 9c-0.35 0.3-0.65 0.65-0.95 1h1.9c0.25 0.3 0.5 0.65 0.7 1h-3.35c-0.2 0.35-0.4 0.65-0.55 1h4.45c0.15 0.35 0.3 0.65 0.4 1h-5.2c-0.1 0.35-0.2 0.65-0.3 1h5.8c0.15 0.65 0.2 1.3 0.2 2 0 1.050-0.15 2.050-0.5 3h-5.2c0.1 0.35 0.25 0.65 0.4 1h4.45c-0.15 0.35-0.35 0.7-0.55 1h-3.35c0.2 0.35 0.45 0.7 0.7 1h1.9c-0.3 0.35-0.6 0.7-0.95 1 1.7 1.5 3.9 2.45 6.35 2.45 0.15 0 0.3 0 0.45 0 2.9-2.1 4.8-5.55 4.8-9.4s-1.9-7.3-4.8-9.4c-0.15 0-0.3 0-0.45 0-2.45-0.1-4.65 0.85-6.35 2.35z"></path>
<path fill="#fff" style="fill: var(--color8, #fff)" d="M8.5 18.35h-1.2l0.7-3.65-1.6 3.65h-1.050l-0.2-3.65-0.7 3.65h-1.050l0.9-4.8h1.85l0.1 3 1.3-3h1.9l-0.95 4.8z"></path>
<path fill="#dce5e5" style="fill: var(--color10, #dce5e5)" d="M7.35 16.25l0.7-1.55-0.55 2.9c0.050 0.25 0.1 0.55 0.2 0.8h0.8l0.9-4.8h-1.75c-0.2 0.75-0.35 1.6-0.35 2.45 0.050 0.050 0.050 0.1 0.050 0.2z"></path>
<path fill="#dce5e5" style="fill: var(--color10, #dce5e5)" d="M21.6 18.3c-0.35 0.1-0.55 0.15-0.85 0.15-0.6 0-0.9-0.3-0.9-0.85 0-0.1 0-0.2 0.050-0.35l0.050-0.4 0.050-0.3 0.55-2.95h1.15l-0.15 0.9h0.6l-0.15 0.9h-0.6l-0.3 1.6c0 0.050-0.050 0.15-0.050 0.15 0 0.2 0.15 0.3 0.4 0.3 0.15 0 0.25 0 0.3-0.050l-0.15 0.9z"></path>
<path fill="#dce5e5" style="fill: var(--color10, #dce5e5)" d="M25.050 14.5c-0.1-0.050-0.1-0.050-0.15-0.050s-0.1 0-0.1-0.050c-0.050 0-0.050 0-0.15 0-0.4 0-0.65 0.15-1 0.65l0.1-0.6h-1.050l-0.7 3.9h1.2c0.4-2.4 0.6-2.8 1.15-2.8 0.050 0 0.1 0 0.15 0l0.15 0.050 0.4-1.1z"></path>
<path fill="#dce5e5" style="fill: var(--color10, #dce5e5)" d="M16.95 15.7c0 0.5 0.3 0.85 0.9 1.050 0.5 0.2 0.55 0.25 0.55 0.45 0 0.25-0.2 0.35-0.7 0.35-0.35 0-0.7-0.050-1.050-0.15l-0.15 0.9h0.050l0.2 0.050c0.050 0 0.2 0 0.3 0 0.3 0.050 0.5 0.050 0.65 0.050 1.25 0 1.85-0.4 1.85-1.3 0-0.55-0.25-0.85-0.85-1.1-0.5-0.2-0.55-0.25-0.55-0.4 0-0.2 0.2-0.3 0.6-0.3 0.2 0 0.55 0 0.85 0.050l0.15-0.9c-0.3-0.050-0.75-0.050-1.050-0.050-1.3 0-1.75 0.6-1.75 1.3v0z"></path>
<path fill="#dce5e5" style="fill: var(--color10, #dce5e5)" d="M12.3 18.35h-0.95v-0.4c-0.3 0.3-0.7 0.45-1.25 0.45-0.65 0-1.050-0.45-1.050-1.050 0-0.95 0.75-1.5 2.050-1.5 0.15 0 0.3 0 0.5 0 0.050-0.15 0.050-0.2 0.050-0.25 0-0.25-0.2-0.35-0.75-0.35-0.35 0-0.7 0.050-0.95 0.1l-0.15 0.050h-0.1l0.15-0.85c0.6-0.15 0.95-0.2 1.4-0.2 1 0 1.55 0.4 1.55 1.15 0 0.2 0 0.35-0.1 0.8l-0.25 1.4-0.050 0.25-0.050 0.2v0.15l-0.050 0.050zM11.45 16.6c-0.15 0-0.2 0-0.25 0-0.65 0-1 0.2-1 0.6 0 0.25 0.15 0.4 0.4 0.4 0.5 0 0.85-0.4 0.85-1v0z"></path>
<path fill="#dce5e5" style="fill: var(--color10, #dce5e5)" d="M16.15 18.25c-0.4 0.1-0.8 0.15-1.2 0.15-1.3 0-2-0.6-2-1.75 0-1.35 0.85-2.3 2.050-2.3 0.95 0 1.55 0.55 1.55 1.4 0 0.3-0.050 0.55-0.15 0.95h-2.35c0 0.050 0 0.1 0 0.15 0 0.45 0.35 0.7 1 0.7 0.45 0 0.8-0.050 1.2-0.25l-0.1 0.95zM15.55 15.95c0-0.050 0-0.15 0-0.2 0-0.3-0.2-0.5-0.55-0.5s-0.65 0.25-0.75 0.7h1.3z"></path>
<path fill="#fff" style="fill: var(--color8, #fff)" d="M28.7 16.6c-0.2 1.3-1.1 1.85-2.3 1.85-1.3 0-1.85-0.8-1.85-1.8 0-1.35 0.9-2.3 2.3-2.3 1.2 0 1.85 0.8 1.85 1.75 0 0.25 0 0.25 0 0.5v0zM27.45 16.1c0-0.4-0.15-0.75-0.65-0.75-0.6 0-0.95 0.7-0.95 1.35 0 0.5 0.25 0.85 0.65 0.85 0.25 0 0.8-0.35 0.9-0.95 0.050-0.2 0.050-0.35 0.050-0.5v0z"></path>
<path fill="#fff" style="fill: var(--color8, #fff)" d="M24.6 17.1c0.050-0.35 0.1-0.75 0.1-1.1 0-0.050 0-0.1 0-0.1-0.050 0.25-0.1 0.5-0.1 0.8-0.050 0.1-0.050 0.25 0 0.4z"></path>
</symbol>
<symbol id="icn-pay-alfa" viewBox="0 0 32 32">

<path fill="#f00" style="fill: var(--color1, #f00)" d="M8.699 20.378c0.149 0.056 2.619 1.014 2.762 1.071s0.292-0.030 0.339-0.16c0.047-0.129 1.076-2.958 1.192-3.275h7.010c0.116 0.317 1.134 3.142 1.186 3.275 0.039 0.103 0.136 0.175 0.251 0.175 0.032 0 0.062-0.005 0.090-0.015l-0.002 0.001 2.761-1.071c0.169-0.063 0.194-0.243 0.154-0.351-0.141-0.39-4.872-13.346-5.076-13.899-0.48-1.304-1.051-2.609-2.872-2.609s-2.415 1.324-2.877 2.61c-0.238 0.664-4.898 13.412-5.071 13.898-0.011 0.029-0.018 0.062-0.018 0.097 0 0.114 0.070 0.212 0.169 0.253l0.002 0.001zM16.48 7.751h0.028l2.379 7.117h-4.779l2.372-7.117zM24.816 26.703h-16.645c-0.145 0-0.264 0.122-0.264 0.273v3.026c0 0.151 0.118 0.273 0.264 0.273h16.645c0.146 0 0.264-0.122 0.264-0.273v-3.028c0-0.149-0.118-0.271-0.264-0.271z"></path>
</symbol>

<symbol id="tiktok" viewBox="0 0 24 24">
<path d="M16.7,0c0.4,3.4,2.3,5.4,5.6,5.7v3.8c-1.9,0.2-3.6-0.4-5.5-1.6V15c0,9.1-9.9,11.9-13.9,5.4c-2.6-4.2-1-11.6,7.2-11.9v4
	c-0.6,0.1-1.3,0.3-1.9,0.5c-1.8,0.6-2.9,1.8-2.6,3.8c0.6,3.9,7.7,5.1,7.1-2.6V0L16.7,0L16.7,0z"/>

</symbol>

<symbol id="icn-pay-mastercard" viewBox="0 0 33 32">

<path fill="#e69f44" style="fill: var(--color11, #e69f44)" d="M29.46 15.492c-0.478 0-0.819 0.559-0.819 1.348 0 0.525 0.182 0.79 0.541 0.79 0.492 0 0.837-0.556 0.837-1.351 0-0.51-0.196-0.787-0.559-0.787zM23.249 17.364c0 0.25 0.148 0.409 0.378 0.409 0.429 0 0.74-0.41 0.757-1.003-0.070-0.010-0.152-0.016-0.234-0.017h-0c-0.598 0-0.901 0.205-0.901 0.61z"></path>
<path fill="#e69f44" style="fill: var(--color11, #e69f44)" d="M22.777 6.275c-0.004 0-0.010 0-0.015 0-3.012 0-5.703 1.374-7.48 3.53l-0.013 0.017h1.964c0.268 0.327 0.516 0.67 0.741 1.030h-3.448c-0.205 0.331-0.394 0.675-0.559 1.031h4.567c0.156 0.333 0.294 0.676 0.412 1.029h-5.39c-0.112 0.336-0.208 0.679-0.283 1.029h5.955c0.042 0.193 0.075 0.388 0.105 0.585h0.002c0.026 0.178 0.048 0.358 0.066 0.54 0.378-0.96 1.147-1.559 2.122-1.559 0.462 0 1.006 0.195 1.162 0.255l-0.174 1.071c-0.377-0.19-0.65-0.266-0.943-0.266-0.787 0-1.34 0.762-1.34 1.848 0 0.748 0.372 1.2 0.985 1.2 0.259 0 0.547-0.079 0.897-0.253l-0.186 1.125c-0.388 0.106-0.64 0.145-0.933 0.145-0.798 0-1.385-0.405-1.663-1.1-0.085 0.536-0.212 1.057-0.38 1.559h-5.39c0.118 0.352 0.255 0.697 0.412 1.031h4.566c-0.166 0.355-0.352 0.699-0.56 1.031h-3.446c0.225 0.358 0.472 0.702 0.742 1.029h1.963c-0.302 0.367-0.63 0.711-0.982 1.030 1.713 1.561 4.002 2.517 6.513 2.517 0.005 0 0.010 0 0.014 0h-0.001c5.369 0 9.722-4.353 9.722-9.722 0-5.372-4.353-9.726-9.724-9.726zM25.153 18.556h-0.873l0.019-0.416c-0.266 0.328-0.622 0.485-1.106 0.485-0.572 0-0.964-0.447-0.964-1.096 0-0.977 0.682-1.546 1.852-1.546 0.12 0 0.274 0.011 0.43 0.031 0.032-0.133 0.041-0.19 0.041-0.262 0-0.265-0.184-0.363-0.676-0.363-0.003 0-0.006 0-0.010 0-0.396 0-0.777 0.066-1.132 0.187l0.025-0.007 0.148-0.902c0.526-0.154 0.873-0.213 1.262-0.213 0.907 0 1.387 0.406 1.387 1.176 0.002 0.205-0.033 0.46-0.085 0.795-0.092 0.581-0.289 1.828-0.315 2.129zM26.561 18.556h-1.056l0.048-0.27c0.183-1.243 0.418-2.5 0.55-3.741h0.97c0.009 0.202-0.037 0.403-0.064 0.607 0.324-0.474 0.57-0.723 1.012-0.632-0.13 0.222-0.306 0.661-0.4 1.164-0.592-0.060-0.684 0.418-1.061 2.871zM29.74 18.556l0.050-0.373c-0.289 0.309-0.586 0.442-0.972 0.442-0.768 0-1.274-0.66-1.274-1.664 0-1.334 0.787-2.459 1.717-2.459 0.41 0 0.72 0.168 1.008 0.547l0.234-1.424h1.042l-0.804 4.932h-0.999z"></path>
<path fill="#d12020" style="fill: var(--color12, #d12020)" d="M15.355 15.369c-0.334 0-0.573 0.255-0.67 0.716h1.158c0.005-0.084 0.112-0.716-0.487-0.716zM6.62 17.364c0 0.25 0.148 0.409 0.379 0.409 0.43 0 0.74-0.41 0.757-1.003-0.071-0.010-0.152-0.016-0.235-0.017h-0c-0.598 0-0.9 0.205-0.9 0.61z"></path>
<path fill="#d12020" style="fill: var(--color12, #d12020)" d="M19.144 16.497c0-0.534 0.090-1.017 0.255-1.434l-0.008-0.094c-0.005-0.045-0.012-0.090-0.017-0.135-0.013-0.105-0.026-0.208-0.042-0.313-0.13 0.223-0.305 0.66-0.4 1.162-0.592-0.060-0.682 0.42-1.060 2.871h-1.056l0.048-0.27c0.182-1.241 0.418-2.499 0.55-3.74h0.969c0.010 0.202-0.037 0.403-0.063 0.607 0.322-0.474 0.57-0.723 1.012-0.632-0.004-0.018-0.005-0.037-0.008-0.055-0.008-0.049-0.019-0.097-0.027-0.148-0.029-0.178-0.052-0.293-0.076-0.408l0.012 0.067-0.009-0.037h-5.953c0.075-0.35 0.169-0.693 0.282-1.029h5.387c-0.012-0.037-0.025-0.073-0.037-0.109-0.117-0.338-0.226-0.603-0.345-0.863l0.024 0.059-0.052-0.115h-4.564c0.166-0.356 0.354-0.699 0.56-1.030h3.445c-0.057-0.091-0.114-0.183-0.175-0.272-0.018-0.026-0.037-0.052-0.055-0.079-0.181-0.262-0.349-0.484-0.525-0.698l0.015 0.019h-1.964c0.302-0.366 0.63-0.711 0.981-1.029-1.713-1.561-4.002-2.518-6.513-2.518-0.004 0-0.008 0-0.013 0h0.001c-5.37 0-9.724 4.354-9.724 9.724 0 5.368 4.354 9.721 9.724 9.721 2.516 0 4.808-0.955 6.534-2.523l0.018-0.017c0.097-0.088 0.192-0.18 0.285-0.272 0.033-0.032 0.064-0.064 0.095-0.096 0.067-0.069 0.135-0.139 0.201-0.21l0.101-0.11c0.073-0.082 0.145-0.165 0.215-0.247l0.058-0.069h-1.964c-0.268-0.326-0.516-0.67-0.741-1.029h3.443c0.015-0.024 0.032-0.049 0.048-0.075 0.062-0.097 0.147-0.24 0.228-0.386l0.027-0.053v-0.002c0.070-0.127 0.135-0.255 0.198-0.385l0.028-0.055c0.012-0.025 0.023-0.050 0.034-0.075h-4.564c-0.133-0.272-0.272-0.612-0.392-0.962l-0.020-0.068h5.388c0.015-0.045 0.032-0.088 0.045-0.133l0.039-0.122c0.033-0.109 0.064-0.22 0.094-0.331l0.027-0.1c0.037-0.146 0.072-0.294 0.102-0.442 0.029-0.142 0.052-0.286 0.076-0.432-0.115-0.291-0.182-0.628-0.182-0.98 0-0.016 0-0.032 0-0.048l-0 0.002zM4.102 18.557l0.605-3.792-1.349 3.791h-0.72l-0.090-3.77-0.635 3.769h-0.987l0.825-4.933h1.517l0.043 3.054 1.025-3.053h1.64l-0.817 4.933h-1.056zM7.651 18.557l0.019-0.416c-0.267 0.328-0.622 0.485-1.107 0.485-0.572 0-0.964-0.447-0.964-1.096 0-0.977 0.682-1.546 1.852-1.546 0.12 0 0.274 0.011 0.431 0.031 0.032-0.133 0.040-0.19 0.040-0.262 0-0.265-0.184-0.363-0.677-0.363-0.003 0-0.007 0-0.011 0-0.396 0-0.776 0.066-1.131 0.187l0.025-0.007c0.012-0.067 0.148-0.902 0.148-0.902 0.526-0.154 0.873-0.213 1.263-0.213 0.907 0 1.387 0.406 1.385 1.176 0.002 0.205-0.032 0.46-0.085 0.795-0.091 0.58-0.288 1.827-0.315 2.129h-0.875zM10.739 16.169c0.529 0.243 0.745 0.566 0.745 1.117 0 0.916-0.514 1.34-1.629 1.34-0.643-0.017-0.858-0.065-1.097-0.118l0.145-0.926c0.337 0.109 0.63 0.157 0.945 0.157 0.42 0 0.607-0.112 0.607-0.362 0-0.182-0.066-0.241-0.493-0.442-0.558-0.262-0.804-0.613-0.804-1.12-0.004-0.74 0.405-1.357 1.586-1.357 0.242 0 0.656 0.035 0.93 0.079l-0.15 0.93c-0.225-0.034-0.488-0.056-0.755-0.060l-0.005-0c-0.341 0-0.517 0.111-0.517 0.328 0 0.187 0.052 0.232 0.495 0.436zM13.547 15.509h-0.54c-0.122 0.765-0.297 1.714-0.298 1.84 0 0.208 0.11 0.297 0.361 0.297 0.12 0 0.213-0.011 0.285-0.037l-0.141 0.888c-0.289 0.090-0.514 0.13-0.757 0.13-0.54 0-0.835-0.309-0.835-0.879-0.008-0.178 0.078-0.645 0.145-1.070 0.060-0.375 0.457-2.736 0.457-2.736h1.050l-0.123 0.607h0.54l-0.145 0.963zM15.516 17.719c0.376 0 0.715-0.078 1.092-0.253l-0.175 0.997c-0.36 0.111-0.709 0.163-1.077 0.163-1.175 0-1.787-0.613-1.787-1.788 0-1.372 0.778-2.38 1.835-2.38 0.865 0 1.418 0.565 1.418 1.451 0 0.295-0.039 0.581-0.13 0.986h-2.089c-0.071 0.583 0.301 0.826 0.912 0.826z"></path>
</symbol>
<symbol id="icn-pay-mir" viewBox="0 0 64 32">

<path fill="#4db45e" style="fill: var(--color13, #4db45e)" d="M17.39 6.942v0.008c-0.008 0-2.5-0.008-3.164 2.373-0.609 2.184-2.326 8.212-2.373 8.378h-0.475c0 0-1.756-6.163-2.373-8.386-0.665-2.381-3.164-2.373-3.164-2.373h-5.696v18.116h5.696v-10.759h0.475l3.323 10.759h3.956l3.323-10.751h0.475v10.751h5.696v-18.116h-5.696z"></path>
<path fill="#4db45e" style="fill: var(--color13, #4db45e)" d="M38.196 6.942c0 0-1.669 0.15-2.452 1.899l-4.035 8.86h-0.475v-10.759h-5.696v18.116h5.38c0 0 1.748-0.158 2.532-1.899l3.956-8.86h0.475v10.759h5.696v-18.116h-5.38z"></path>
<path fill="#4db45e" style="fill: var(--color13, #4db45e)" d="M46.107 15.169v9.889h5.696v-5.775h6.171c2.69 0 4.968-1.717 5.815-4.114h-17.681z"></path>
<path fill="#000" style="fill: var(--color14, #000)" d="M57.974 6.942h-12.666c0.633 3.449 3.22 6.218 6.566 7.12v0c0.759 0.206 1.559 0.316 2.381 0.316h9.762c0.087-0.411 0.127-0.831 0.127-1.266 0-3.41-2.761-6.171-6.171-6.171z"></path>
</symbol>
<symbol id="icn-pay-qiwi" viewBox="0 0 32 32">

<path fill="#e08b44" style="fill: var(--color15, #e08b44)" d="M24.474 21.887c-0.281-0.105-0.307 0.227-0.236 0.441 0.157 0.508 0.369 0.894 0.524 0.971 0.15 0.090 0.326-0.118 0.214-0.623-0.047-0.221-0.214-0.678-0.501-0.789zM22.254 22.825l-0.011-0.008c-0.011 0-0.017-0.003-0.022-0.006-0.011-0.003-0.018-0.008-0.026-0.011h-0.015l-0.044-0.014c-0.041-0.009-0.087-0.013-0.135-0.013-0.135 0-0.26 0.039-0.366 0.106l0.003-0.002c-0.331 0.226-0.383 0.736-0.11 1.143 0.121 0.175 0.29 0.309 0.487 0.384l0.007 0.002c0.006 0.002 0.013 0.007 0.019 0.007 0.009 0.004 0.018 0.004 0.025 0.007 0.008 0 0.011 0.003 0.017 0.006 0.015 0.003 0.028 0.009 0.042 0.011 0.177 0.033 0.353 0.009 0.501-0.090 0.334-0.226 0.386-0.734 0.113-1.14-0.116-0.174-0.28-0.306-0.474-0.38l-0.007-0.002zM30.135 30.83c-0.81-1.649-2.248-2.858-3.805-3.787-0.541-0.322-1.15-0.548-1.681-0.723-1.223-0.397-2.406-0.486-3.785-0.723-1.121-0.192-2.006-0.651-2.957-1.298-0.493-0.339-0.898-0.802-1.236-1.294-0.063-0.099-0.38-0.486-0.348-0.618 0 0-0.221 0.883 0.216 2.121-4.009-0.18-7.526-2.403-9.137-5.098-2.964-4.962-1.92-10.974 2.034-13.628 3.95-2.657 9.975-0.783 13.201 4.010 2.025 3.009 2.542 6.51 1.675 9.357l-0.022 0.064c-1.713-1.247-3.277-0.61-3.277-0.61 1.717-0.177 3.075 1.192 3.075 1.192 0.201 0.177 0.392 0.373 0.566 0.59 0.039 0.053 0.079 0.107 0.118 0.166 0.449 0.609 0.73 1.289 0.85 1.977 3.41-4.326 3.972-10.317 0.956-14.969-3.844-5.929-12.040-7.444-18.3-3.385-6.263 4.060-8.224 12.154-4.377 18.084 3.158 4.877 10.568 6.367 14.815 5.021 1.606-0.503 7.104-0.984 10.932 3.537 0 0 0.331 0.378 0.51 0.809 0 0 0.053 0.151 0.195 0.077 0.036-0.020 0.141-0.143-0.221-0.872z"></path>
</symbol>
<symbol id="icn-pay-rbk" viewBox="0 0 32 32">

<path fill="#585551" style="fill: var(--color16, #585551)" d="M10.003 5.436c0-2.37-1.922-4.292-4.292-4.292s-4.292 1.922-4.292 4.292v0 10.456c0 2.37 1.922 4.292 4.292 4.292s4.292-1.922 4.292-4.292v0-10.456z"></path>
<path fill="#81b05c" style="fill: var(--color17, #81b05c)" d="M20.658 16.092c-0.057-2.327-1.956-4.191-4.291-4.191s-4.234 1.864-4.291 4.186l-0 0.005v10.656c0 0 0 0.001 0 0.001 0 2.368 1.92 4.289 4.289 4.289 0 0 0.001 0 0.001 0h-0c0.001 0 0.002 0 0.002 0 2.369 0 4.29-1.921 4.29-4.29v0-10.656zM31.413 5.436c0-2.37-1.922-4.292-4.292-4.292s-4.292 1.922-4.292 4.292v0 21.311c0 2.369 1.921 4.29 4.29 4.29 0.001 0 0.003 0 0.004 0h-0c0 0 0.001 0 0.001 0 2.369 0 4.29-1.921 4.29-4.29v0-21.311z"></path>
<path fill="#81b05c" style="fill: var(--color17, #81b05c)" d="M10.003 26.748c0 2.37-1.922 4.292-4.292 4.292s-4.292-1.922-4.292-4.292c0-2.37 1.922-4.292 4.292-4.292s4.292 1.922 4.292 4.292z"></path>
<path fill="#585551" style="fill: var(--color16, #585551)" d="M20.658 5.436c0-2.37-1.921-4.291-4.291-4.291s-4.291 1.921-4.291 4.291v0 0.098c0.057 2.327 1.956 4.191 4.291 4.191s4.234-1.864 4.291-4.186l0-0.005v-0.098z"></path>
</symbol>
<symbol id="icn-pay-sber" viewBox="0 0 32 32">

<path fill="#466b4a" style="fill: var(--color18, #466b4a)" d="M27.582 7.475c-0.165-0.248-0.338-0.495-0.52-0.734-0.098-0.128-0.178-0.229-0.259-0.328l0.015 0.019-0.135-0.164-15.938 9.166-7.731-4.446c-0.13 0.398-0.259 0.906-0.36 1.425l-0.014 0.087 8.105 4.663 16.835-9.687z"></path>
<path fill="#466b4a" style="fill: var(--color18, #466b4a)" d="M23.046 3.182c-0.443-0.266-0.969-0.535-1.514-0.77l-0.089-0.034-10.7 6.154-4.763-2.741c-0.338 0.374-0.659 0.765-0.955 1.174l5.718 3.292 12.302-7.075z"></path>
<path fill="#466b4a" style="fill: var(--color18, #466b4a)" d="M25.638 5.142c-0.383-0.367-0.785-0.711-1.204-1.032l-13.688 7.875-6.532-3.76c-0.248 0.436-0.473 0.883-0.671 1.34l7.204 4.143 14.893-8.564z"></path>
<path fill="#466b4a" style="fill: var(--color18, #466b4a)" d="M4.278 21.933c1.659 2.807 4.21 4.936 7.257 6.020l0.096 0.030c0.536 0.187 1.092 0.341 1.655 0.462 0.796 0.169 1.617 0.267 2.454 0.29h0.765c2.514-0.076 4.842-0.811 6.834-2.038l-0.060 0.034c1.6-0.991 2.938-2.244 3.993-3.714l0.028-0.041c1.591-2.211 2.545-4.973 2.545-7.959 0-0.125-0.002-0.249-0.005-0.373l0 0.018c-0.062-2.162-0.611-4.181-1.54-5.972l0.036 0.077-17.595 10.117-8.304-4.777c-0.019 0.271-0.030 0.586-0.030 0.904 0 0.883 0.083 1.747 0.241 2.585l-0.014-0.086c0.31 1.665 0.881 3.15 1.674 4.487l-0.035-0.063z"></path>
</symbol>
<symbol id="icn-pay-visa" viewBox="0 0 64 32">

<path fill="#4c70b3" style="fill: var(--color19, #4c70b3)" d="M27.855 26.006h-5.207l3.253-19.998h5.208zM59.219 26.006h4.781l-4.169-19.998h-4.186c-1.932 0-2.404 1.49-2.404 1.49l-7.765 18.507h5.427l1.086-2.971h6.62l0.61 2.971zM53.489 18.933l2.736-7.484 1.539 7.484h-4.275zM45.884 10.817l0.743-4.295s-2.293-0.872-4.683-0.872c-2.584 0-8.719 1.13-8.719 6.62 0 5.169 7.201 5.231 7.201 7.944s-6.457 2.227-8.59 0.517l-0.775 4.489s2.325 1.13 5.877 1.13 8.913-1.843 8.913-6.849c0-5.198-7.266-5.683-7.266-7.941 0-2.262 5.071-1.973 7.299-0.744z"></path>
<path fill="#e59d4d" style="fill: var(--color20, #e59d4d)" d="M12.793 16.953l-1.79-9.19s-0.217-1.838-2.524-1.838h-8.381l-0.098 0.346s4.028 0.832 7.892 3.962c3.697 2.989 4.902 6.718 4.902 6.718z"></path>
<path fill="#4c70b3" style="fill: var(--color19, #4c70b3)" d="M18.268 6.009l-4.964 13.754-0.587-2.961-0.013-0.069c-0.329-0.859-1.666-3.93-4.81-6.477-0.75-0.608-1.508-1.125-2.24-1.572l4.51 17.319h5.425l8.283-19.998h-5.603z"></path>
</symbol>
<symbol id="icn-pay-webmoney" viewBox="0 0 32 32">

<path fill="#4e79b8" style="fill: var(--color21, #4e79b8)" d="M16.384 1.769c2.248 0 4.377 0.523 6.273 1.453 0.298 0.141 0.596 0.298 0.894 0.468l-1.319 1.181-1.981-2.049-3.343 2.982-1.984-2.167-6.226 5.611 3.991 4.403-1.567 1.379 3.93 4.406-1.559 1.377 5.617 6.253 3.335-3.070 2.883 3.29c-0.574 0.446-1.198 0.865-1.887 1.254-2.023 1.176-4.453 1.87-7.044 1.87-0.005 0-0.009 0-0.014 0h0.001c-7.887 0-14.319-6.433-14.319-14.318 0-7.89 6.431-14.319 14.317-14.319z"></path>
<path fill="#4e79b8" style="fill: var(--color21, #4e79b8)" d="M13.774 15.183l3.405-3.068 3.064 3.405-3.404 3.065-3.068-3.404zM16.196 21.065l3.404-3.065 3.068 3.405-3.406 3.068-3.065-3.407zM11.339 9.368l3.404-3.068 3.068 3.406-3.406 3.065-3.065-3.404zM17.587 7.718l2.553-2.298 2.298 2.554-2.554 2.3-2.295-2.557zM22.124 18.249l2.553-2.3 2.3 2.554-2.553 2.297-2.301-2.553zM24.37 23.406l2.553-2.3 2.298 2.553-2.553 2.3-2.301-2.553zM25.398 11.586l1.703-1.534 1.534 1.703-1.703 1.534-1.534-1.704zM23.223 6.527l1.703-1.534 1.532 1.704-1.703 1.532-1.534-1.703zM27.575 16.643l1.703-1.534 1.534 1.703-1.704 1.534-1.534-1.703zM19.939 12.853l2.554-2.3 2.298 2.553-2.552 2.298-2.3-2.551z"></path>
</symbol>
<symbol id="icn-pay-ymoney" viewBox="0 0 32 32">

<path fill="#fc0" style="fill: var(--color22, #fc0)" d="M3.31 15.89c0-1.766 0.11-2.979 3.862-5.738 3.090-2.317 13.021-10.152 13.021-10.152v13.131h7.503v18.869h-22.069c-1.214 0-2.317-1.103-2.317-2.317v-13.793z"></path>
<path fill="#d6ab05" style="fill: var(--color23, #d6ab05)" d="M20.193 13.131v7.614l-13.903 9.379 17.545-5.628v-11.366z"></path>
<path fill="#000" style="fill: var(--color14, #000)" d="M13.793 12.69c0.772-0.993 1.986-1.324 2.648-0.772s0.552 1.766-0.331 2.759c-0.772 0.993-1.986 1.324-2.648 0.772-0.552-0.552-0.441-1.766 0.331-2.759z"></path>
</symbol>
<symbol id="icn-soc-fb" viewBox="0 0 32 32">

<path fill="#3d5a9b" style="fill: var(--color24, #3d5a9b)" d="M25.92 1.28h-21.12c-2.651 0-4.8 2.149-4.8 4.8v0 21.12c0 2.651 2.149 4.8 4.8 4.8v0h21.12c2.651 0 4.8-2.149 4.8-4.8v0-21.12c0-2.651-2.149-4.8-4.8-4.8v0z"></path>
<path fill="#fff" style="fill: var(--color8, #fff)" d="M12.913 25.58h3.802v-8.934h2.564l0.333-3.156h-2.898v-1.856c0-0.696 0.476-0.858 0.81-0.858h1.71v-3.067l-2.483-0.010c-3.123 0-3.836 2.287-3.836 3.75v2.040h-1.361v3.156h1.359v8.934z"></path>
</symbol>
<symbol id="icn-soc-gp" viewBox="0 0 32 32">

<path fill="#e20000" style="fill: var(--color25, #e20000)" d="M25.92 1.28h-21.12c-2.651 0-4.8 2.149-4.8 4.8v0 21.12c0 2.651 2.149 4.8 4.8 4.8v0h21.12c2.651 0 4.8-2.149 4.8-4.8v0-21.12c0-2.651-2.149-4.8-4.8-4.8v0z"></path>
<path fill="#fff" style="fill: var(--color8, #fff)" d="M13.254 23.096c-0.924-0.691-2.924-2.106-2.924-3.055 0-1.111 0.32-1.658 1.997-2.967 1.713-1.341 2.929-3.108 2.929-5.302 0-2.391-0.979-4.557-2.808-5.61h2.604l2.218-2.33h-9.923c-2.972 0-5.645 1.302-7.342 3.203v9.814c1.284 1.408 3.182 2.281 5.604 2.281 0.329 0 0.653-0.023 0.963-0.041-0.307 0.589-0.527 1.248-0.527 1.933 0 1.16 0.636 1.825 1.426 2.586-0.599 0-1.172 0.026-1.802 0.026-2.176 0-4.102 0.563-5.663 1.472v2.057c0 0.389 0.056 0.76 0.143 1.123 1.101-2.028 3.782-3.515 6.825-3.482 0.926 0.009 1.813 0.16 2.645 0.434l-0.062-0.018c2.163 1.504 3.907 2.44 4.347 4.157 0.081 0.346 0.128 0.699 0.128 1.068 0 0.545-0.067 1.066-0.201 1.558h2.902c0.246-0.648 0.384-1.315 0.384-1.984-0.006-3.013-0.659-4.527-3.859-6.925zM7.52 17.615c-2.675-0.083-5.217-2.534-5.678-6.048-0.467-3.511 1.329-6.199 4.001-6.118 2.675 0.081 4.963 2.961 5.427 6.473 0.461 3.512-1.078 5.773-3.75 5.693zM25.508 3.899h-2.605v5.21h-5.21v2.605h5.21v5.21h2.605v-5.21h5.212v-2.605h-5.212z"></path>
</symbol>
<symbol id="icn-soc-in" viewBox="0 0 32 32">

<path fill="#dc3171" style="fill: var(--color26, #dc3171)" d="M4.992 0h22.144c2.688 0 4.864 2.176 4.864 4.992v22.144c0 2.688-2.176 4.992-4.992 4.992h-22.016c-2.816-0.128-4.992-2.304-4.992-5.12v-22.016c0-2.816 2.176-4.992 4.992-4.992z"></path>
<path fill="#fff" style="fill: var(--color8, #fff)" d="M16 6.528c3.072 0 3.456 0 4.608 0.128s1.792 0.256 2.176 0.384c0.512 0.256 0.896 0.512 1.28 0.896s0.64 0.768 0.896 1.28c0.128 0.384 0.384 1.024 0.384 2.176 0.128 1.28 0.128 1.536 0.128 4.608s0 3.456-0.128 4.608c-0.128 1.152-0.256 1.792-0.384 2.176-0.256 0.512-0.512 0.896-0.896 1.28s-0.768 0.64-1.28 0.896c-0.384 0.128-1.024 0.384-2.176 0.384-1.28 0.128-1.536 0.128-4.608 0.128s-3.456 0-4.608-0.128c-1.152-0.128-1.792-0.256-2.176-0.384-0.512-0.256-0.896-0.512-1.28-0.896s-0.64-0.768-0.896-1.28c-0.128-0.384-0.384-1.024-0.384-2.176-0.128-1.152-0.128-1.536-0.128-4.608s0-3.456 0.128-4.608c0-1.152 0.128-1.792 0.384-2.176 0.256-0.512 0.512-0.896 0.896-1.28s0.768-0.64 1.28-0.896c0.384-0.128 1.024-0.384 2.048-0.384 1.28-0.128 1.664-0.128 4.736-0.128zM16 4.48c-3.2 0-3.584 0-4.736 0.128-1.28 0.128-2.048 0.256-2.816 0.512s-1.408 0.64-2.048 1.28-1.024 1.28-1.408 2.048c-0.256 0.768-0.512 1.536-0.512 2.816v4.736s0 3.584 0.128 4.736c0.128 1.28 0.256 2.048 0.512 2.816s0.64 1.408 1.28 2.048 1.28 1.024 2.048 1.408c0.768 0.256 1.536 0.512 2.816 0.512h4.736s3.584 0 4.736-0.128 2.048-0.256 2.816-0.512c0.768-0.256 1.408-0.64 2.048-1.28s1.024-1.28 1.408-2.048c0.256-0.768 0.512-1.536 0.512-2.816v-4.736s0-3.584-0.128-4.736c-0.128-1.28-0.256-2.048-0.512-2.816s-0.64-1.408-1.28-2.048-1.28-1.024-2.048-1.408c-0.768-0.256-1.536-0.512-2.816-0.512h-4.736z"></path>
<path fill="#fff" style="fill: var(--color8, #fff)" d="M16 10.112c-3.328 0-5.888 2.688-5.888 5.888s2.688 5.888 5.888 5.888 5.888-2.688 5.888-5.888-2.56-5.888-5.888-5.888zM16 19.84c-2.176 0-3.84-1.792-3.84-3.84s1.792-3.84 3.84-3.84 3.84 1.792 3.84 3.84-1.664 3.84-3.84 3.84z"></path>
<path fill="#fff" style="fill: var(--color8, #fff)" d="M23.552 9.856c0 0.778-0.63 1.408-1.408 1.408s-1.408-0.63-1.408-1.408c0-0.778 0.63-1.408 1.408-1.408s1.408 0.63 1.408 1.408z"></path>
</symbol>
<symbol id="icn-soc-ok" viewBox="0 0 32 32">

<path fill="#eb722e" style="fill: var(--color27, #eb722e)" d="M5.12 0h21.76c2.828 0 5.12 2.292 5.12 5.12v21.76c0 2.828-2.292 5.12-5.12 5.12h-21.76c-2.828 0-5.12-2.292-5.12-5.12v-21.76c0-2.828 2.292-5.12 5.12-5.12z"></path>
<path fill="#fff" style="fill: var(--color8, #fff)" d="M16 15.36c2.919-0 5.286-2.367 5.286-5.286s-2.367-5.286-5.286-5.286c-2.902 0-5.257 2.338-5.286 5.232l-0 0.003c-0 0.015-0 0.033-0 0.051 0 2.92 2.367 5.286 5.286 5.286 0 0 0 0 0 0v0zM16 7.885c1.209 0 2.189 0.98 2.189 2.189s-0.98 2.189-2.189 2.189c-1.209 0-2.189-0.98-2.189-2.189v0c-0-0.011-0-0.025-0-0.038 0-1.212 0.979-2.194 2.188-2.202h0.001zM18.138 19.622c1.164-0.279 2.189-0.72 3.114-1.305l-0.042 0.025c0.459-0.277 0.761-0.774 0.761-1.341 0-0.289-0.078-0.559-0.215-0.791l0.004 0.007c-0.275-0.441-0.758-0.73-1.308-0.73-0.308 0-0.595 0.091-0.836 0.247l0.006-0.004c-1.011 0.638-2.24 1.017-3.558 1.017s-2.548-0.379-3.586-1.034l0.028 0.016c-0.234-0.15-0.52-0.239-0.826-0.239-0.55 0-1.033 0.287-1.308 0.719l-0.004 0.006c-0.147 0.234-0.234 0.518-0.234 0.822 0 0.55 0.284 1.034 0.714 1.312l0.006 0.004c0.883 0.56 1.908 1.001 3.002 1.266l0.070 0.014-3.021 2.944c-0.28 0.28-0.453 0.667-0.453 1.094s0.173 0.814 0.453 1.094l-0-0c0.284 0.276 0.673 0.447 1.101 0.448h0c0.001 0 0.002 0 0.004 0 0.423 0 0.806-0.171 1.084-0.448l2.906-2.906 2.906 2.906c0.276 0.256 0.646 0.413 1.053 0.413 0.855 0 1.549-0.693 1.549-1.549 0-0.407-0.157-0.778-0.414-1.054l0.001 0.001z"></path>
</symbol>
<symbol id="icn-soc-tg" viewBox="0 0 32 32">

<path fill="#37aee2" style="fill: var(--color28, #37aee2)" d="M27.008 0h-22.016c-2.816 0-4.992 2.176-4.992 4.992v22.144c0 2.688 2.176 4.864 4.992 4.864h22.144c2.688 0 4.992-2.176 4.992-4.992v-22.016c-0.128-2.816-2.304-4.992-5.12-4.992z"></path>
<path fill="#fff" style="fill: var(--color8, #fff)" d="M24.064 8.32l-17.92 6.912c-0.64 0.256-0.512 1.024 0 1.28l4.608 1.28 1.664 5.376c0.128 0.512 0.896 0.768 1.28 0.256l2.304-2.432 4.608 3.328c0.512 0.384 1.408 0.128 1.536-0.64l3.072-14.592c0.256-0.512-0.512-1.024-1.152-0.768zM21.888 11.52l-8.32 7.296c-0.128 0.128-0.128 0.128-0.128 0.256l-0.256 2.816c0 0.128-0.128 0.128-0.128 0l-1.28-4.224c0-0.256 0-0.384 0.128-0.512l9.856-6.144s0.256 0.384 0.128 0.512z"></path>
</symbol>
<symbol id="icn-soc-tw" viewBox="0 0 32 32">

<path fill="#0098e1" style="fill: var(--color29, #0098e1)" d="M25.92 1.28h-21.12c-2.651 0-4.8 2.149-4.8 4.8v0 21.12c0 2.651 2.149 4.8 4.8 4.8v0h21.12c2.651 0 4.8-2.149 4.8-4.8v0-21.12c0-2.651-2.149-4.8-4.8-4.8v0z"></path>
<path fill="#fff" style="fill: var(--color8, #fff)" d="M8.96 21.466c1.363 0.889 3.032 1.417 4.823 1.417 0.003 0 0.005 0 0.008 0h-0c5.796 0 8.968-4.803 8.968-8.968 0-0.136-0.003-0.271-0.010-0.406 0.614-0.445 1.152-0.998 1.572-1.629-0.563 0.251-1.172 0.42-1.81 0.495 0.653-0.389 1.148-1.007 1.386-1.743-0.577 0.348-1.248 0.613-1.963 0.757l-0.041 0.007c-0.576-0.612-1.391-0.993-2.295-0.993-0.002 0-0.003 0-0.005 0h0c-0.002 0-0.004 0-0.006 0-1.739 0-3.149 1.41-3.149 3.149 0 0.255 0.030 0.503 0.088 0.741l-0.004-0.021c-2.625-0.136-4.934-1.384-6.482-3.277l-0.013-0.016c-0.269 0.466-0.426 1.007-0.426 1.585 0 1.094 0.557 2.061 1.404 2.624-0.527-0.017-1.017-0.161-1.445-0.402l0.016 0.008v0.038c0 1.527 1.088 2.803 2.529 3.091-0.248 0.070-0.533 0.11-0.827 0.11-0.21 0-0.416-0.021-0.614-0.060l0.020 0.003c0.414 1.262 1.571 2.163 2.941 2.189l0.003 0c-1.065 0.842-2.427 1.351-3.908 1.351-0.268 0-0.532-0.017-0.791-0.049l0.031 0.003z"></path>
</symbol>
<symbol id="icn-soc-viber" viewBox="0 0 32 32">

<path fill="#7143b9" style="fill: var(--color30, #7143b9)" d="M8.206 28.673c0.009-0.944 0.027-1.887 0.037-2.831 0-0.22 0.027-0.192-0.183-0.284-1.173-0.467-2.263-1.054-3.223-1.878-0.992-0.846-1.799-1.876-2.376-3.041l-0.025-0.056c-0.561-1.154-0.872-2.382-1.046-3.647-0.062-0.444-0.099-0.959-0.101-1.482v-0.002c0-0.467-0.073-0.937-0.083-1.402-0.009-0.33-0.018-0.669-0.009-1 0.009-0.678-0.055-1.356-0.028-2.034 0.055-1.539 0.33-3.042 0.937-4.471 0.858-2.032 2.269-3.57 4.193-4.652 1.333-0.753 2.887-1.307 4.537-1.574l0.081-0.011c0.892-0.153 1.938-0.256 3.003-0.284l0.030-0.001c1.209-0.036 2.419-0.025 3.635-0.009 1.557 0.018 3.097 0.165 4.608 0.531 1.437 0.339 2.794 0.879 4.040 1.677 1.513 0.963 2.667 2.235 3.446 3.857 0.486 1 0.779 2.052 0.971 3.142 0.117 0.669 0.185 1.438 0.185 2.224 0 0.072-0.001 0.143-0.002 0.215l0-0.011c-0.009 0.861-0.027 1.722-0.082 2.574-0.037 0.586-0.037 1.172-0.063 1.759-0.101 1.622-0.431 3.187-1.145 4.654-0.881 1.797-2.21 3.152-3.95 4.132-1.437 0.806-2.977 1.312-4.59 1.585-1.143 0.199-2.46 0.312-3.804 0.312-0.009 0-0.018 0-0.028-0h0.001c-0.788 0-1.576-0.009-2.364 0-0.083 0.002-0.182 0.004-0.28 0.004-0.327 0-0.651-0.015-0.97-0.044l0.041 0.003c-0.013-0.002-0.027-0.003-0.042-0.003-0.106 0-0.201 0.051-0.26 0.13l-0.001 0.001c-0.632 0.733-1.264 1.466-1.906 2.199-0.788 0.907-1.576 1.812-2.354 2.712-0.080 0.095-0.171 0.177-0.27 0.247l-0.005 0.003c-0.25 0.165-0.504 0.073-0.568-0.22-0.008-0.042-0.012-0.091-0.012-0.141 0-0.024 0.001-0.049 0.003-0.073l-0 0.003c-0.009-0.937 0.009-1.878 0.018-2.812z"></path>
<path fill="#fff" style="fill: var(--color8, #fff)" d="M6.951 8.389c0.027-1.117 0.541-1.961 1.466-2.562 0.36-0.253 0.784-0.443 1.241-0.546l0.024-0.004c0.476-0.101 0.937-0.037 1.337 0.266 0.261 0.204 0.492 0.423 0.7 0.663l0.005 0.006c0.709 0.769 1.328 1.638 1.829 2.579l0.033 0.067c0.076 0.147 0.148 0.32 0.204 0.499l0.006 0.023c0.156 0.522 0.037 0.981-0.312 1.384-0.13 0.144-0.271 0.274-0.423 0.388l-0.008 0.005c-0.161 0.109-0.302 0.22-0.433 0.341l0.003-0.002c-0.321 0.302-0.412 0.669-0.312 1.090 0.045 0.191 0.102 0.356 0.172 0.513l-0.007-0.018c0.606 1.338 1.563 2.428 2.755 3.18l0.030 0.018c0.437 0.275 0.879 0.531 1.375 0.706 0.458 0.165 0.806 0.063 1.109-0.321 0.128-0.165 0.238-0.339 0.385-0.495 0.275-0.293 0.586-0.513 0.981-0.605 0.431-0.101 0.843-0.027 1.237 0.147 0.375 0.156 0.706 0.394 1.036 0.625 0.659 0.458 1.301 0.944 1.924 1.447 0.166 0.141 0.313 0.294 0.444 0.461l0.005 0.007c0.321 0.421 0.385 0.889 0.25 1.384-0.14 0.489-0.374 0.912-0.682 1.269l0.004-0.004c-0.541 0.659-1.2 1.154-2.016 1.42-0.196 0.068-0.423 0.117-0.659 0.137l-0.010 0.001c-0.293 0.027-0.568-0.073-0.843-0.156s-0.513-0.202-0.761-0.312c-1.372-0.613-2.539-1.265-3.64-2.005l0.086 0.054c-1.727-1.149-3.215-2.468-4.502-3.966l-0.024-0.029c-0.936-1.095-1.784-2.32-2.502-3.626l-0.057-0.113c-0.41-0.725-0.823-1.594-1.177-2.492l-0.051-0.146c-0.132-0.379-0.212-0.815-0.221-1.27l-0-0.004z"></path>
<path fill="#fff" style="fill: var(--color8, #fff)" d="M24.596 12.118c-0.009 0.302 0.027 0.522 0 0.733-0.063 0.522-0.522 0.797-1.008 0.596-0.293-0.119-0.385-0.375-0.412-0.659-0.027-0.348-0.055-0.696-0.11-1.044-0.183-1.072-0.476-2.107-1.054-3.042-0.434-0.696-0.999-1.27-1.666-1.7l-0.021-0.013c-0.806-0.522-1.704-0.824-2.639-1.036-0.343-0.086-0.76-0.157-1.186-0.201l-0.039-0.003c-0.104-0.007-0.2-0.030-0.29-0.065l0.007 0.002c-0.284-0.101-0.431-0.312-0.412-0.614 0.037-0.531 0.339-0.742 0.75-0.742 0.055-0.001 0.12-0.002 0.184-0.002 1.535 0 2.962 0.463 4.149 1.256l-0.027-0.017c0.784 0.507 1.453 1.111 2.012 1.807l0.013 0.016c1.1 1.401 1.74 2.995 1.751 4.727z"></path>
<path fill="#fff" style="fill: var(--color8, #fff)" d="M22.223 11.953c-0.009 0.156 0.018 0.357-0.027 0.559-0.063 0.339-0.302 0.531-0.659 0.541-0.375 0.009-0.614-0.156-0.696-0.495-0.026-0.116-0.045-0.254-0.055-0.395l-0-0.009c-0.069-0.663-0.228-1.271-0.465-1.838l0.016 0.043c-0.33-0.824-0.926-1.384-1.741-1.732-0.508-0.223-1.1-0.398-1.717-0.497l-0.042-0.006c-0.174-0.024-0.332-0.072-0.477-0.142l0.010 0.004c-0.074-0.034-0.135-0.084-0.182-0.146l-0.001-0.001c-0.202-0.25-0.193-0.513-0.082-0.788 0.082-0.233 0.295-0.4 0.549-0.412l0.001-0c0.22-0.027 0.437 0.009 0.659 0.046 0.662 0.092 1.261 0.272 1.817 0.529l-0.039-0.016c0.738 0.362 1.362 0.845 1.872 1.43l0.006 0.007c0.431 0.492 0.774 1.075 0.997 1.713l0.011 0.037c0.151 0.468 0.241 1.006 0.247 1.565l0 0.003z"></path>
<path fill="#fff" style="fill: var(--color8, #fff)" d="M19.942 11.778c0 0.183 0 0.366-0.063 0.541-0.093 0.276-0.35 0.472-0.653 0.472-0.242 0-0.454-0.125-0.577-0.313l-0.002-0.003c-0.073-0.109-0.123-0.24-0.137-0.381l-0-0.004c-0.037-0.229-0.063-0.467-0.156-0.678-0.192-0.467-0.559-0.742-1.036-0.871-0.092-0.027-0.192-0.046-0.284-0.063-0.073-0.018-0.156-0.037-0.229-0.055-0.339-0.101-0.513-0.312-0.513-0.605 0-0.348 0.192-0.632 0.513-0.724 0.137-0.039 0.293-0.061 0.455-0.061 0.174 0 0.342 0.026 0.501 0.073l-0.012-0.003c0.742 0.211 1.292 0.678 1.722 1.301 0.286 0.402 0.469 0.86 0.469 1.373z"></path>
</symbol>
<symbol id="icn-soc-vk" viewBox="0 0 32 32">

<path fill="#4d75a3" style="fill: var(--color31, #4d75a3)" d="M4.992 0h22.144c2.688 0 4.864 2.176 4.864 4.992v22.144c0 2.688-2.176 4.992-4.992 4.992h-22.016c-2.816-0.128-4.992-2.304-4.992-5.12v-22.016c0-2.816 2.176-4.992 4.992-4.992z"></path>
<path fill="#fff" style="fill: var(--color8, #fff)" d="M23.296 16.256s2.816-3.968 3.072-5.248c0.128-0.384-0.128-0.768-0.64-0.768h-2.432c-0.512 0-0.768 0.256-0.896 0.64 0 0-1.28 2.816-2.944 4.48-0.512 0.64-0.768 0.768-1.024 0.768s-0.256-0.128-0.256-0.768v-4.352c0-0.64-0.128-0.768-0.64-0.768h-3.84c-0.256 0-0.512 0.128-0.512 0.384 0 0.64 0.896 0.768 0.896 2.304v3.328c0 0.64 0 0.896-0.384 0.896-0.896 0-2.816-2.816-3.84-6.016-0.256-0.768-0.384-0.896-1.024-0.896h-2.432c-0.384 0-0.64 0.256-0.64 0.512 0 0.64 0.768 3.584 3.712 7.552 1.92 2.688 4.608 4.096 6.912 4.096 1.408 0 1.792-0.256 1.792-0.896v-2.048c0-0.512 0.256-0.768 0.512-0.768s0.896 0.128 2.304 1.408c1.664 1.536 1.792 2.176 2.56 2.176h2.688c0.256 0 0.512-0.128 0.512-0.64 0-0.64-0.768-1.664-2.048-2.944-0.512-0.64-1.28-1.408-1.536-1.664-0.256-0.128-0.128-0.384 0.128-0.768z"></path>
</symbol>
<symbol id="icn-soc-whatsapp" viewBox="0 0 32 32">

<path fill="#67c15e" style="fill: var(--color32, #67c15e)" d="M11.528 8.127c0.386 0.931 1.326 3.226 1.439 3.462s0.226 0.555 0.066 0.866c-0.15 0.32-0.282 0.461-0.517 0.734s-0.46 0.48-0.696 0.771c-0.216 0.254-0.461 0.527-0.188 0.997 0.273 0.461 1.213 1.994 2.595 3.226 1.787 1.59 3.235 2.098 3.752 2.314 0.386 0.16 0.846 0.122 1.128-0.179 0.358-0.386 0.799-1.025 1.251-1.655 0.32-0.451 0.724-0.508 1.147-0.348 0.433 0.151 2.718 1.279 3.188 1.515s0.78 0.348 0.893 0.546c0.113 0.198 0.113 1.129-0.273 2.22s-1.919 1.994-3.141 2.258c-0.837 0.178-1.928 0.32-5.605-1.204-4.702-1.948-7.73-6.726-7.965-7.036-0.226-0.311-1.899-2.53-1.899-4.826s1.166-3.414 1.636-3.894c0.386-0.395 1.025-0.574 1.636-0.574 0.198 0 0.376 0.009 0.536 0.019 0.47 0.019 0.705 0.047 1.015 0.79zM15.995 0c-8.82 0-15.995 7.177-15.995 16 0 3.499 1.129 6.744 3.047 9.378l-1.994 5.945 6.15-1.965c2.529 1.674 5.548 2.643 8.802 2.643 8.82 0 15.995-7.177 15.995-16s-7.175-16-15.995-16h-0.009v-0.001z"></path>
</symbol>
<symbol id="icn-soc-whatsapp2" viewBox="0 0 32 32">

<path fill="#51c85d" style="fill: var(--color33, #51c85d)" d="M31.275 15.113c-0.038 3.962-1.056 7.063-3.175 9.756-2.275 2.894-5.238 4.731-8.863 5.475-2.8 0.569-5.525 0.319-8.2-0.65-0.594-0.219-1.175-0.475-1.731-0.781-0.169-0.094-0.313-0.106-0.5-0.044-2.531 0.819-5.069 1.631-7.606 2.438-0.113 0.038-0.262 0.144-0.35 0.063-0.1-0.1 0.025-0.25 0.063-0.369 0.506-1.506 1.013-3.019 1.525-4.525 0.313-0.919 0.612-1.831 0.938-2.744 0.087-0.238 0.056-0.419-0.075-0.637-0.644-1.1-1.119-2.275-1.456-3.506-0.631-2.313-0.7-4.65-0.206-6.988 0.538-2.55 1.663-4.825 3.394-6.787 2.094-2.375 4.675-3.944 7.744-4.7 1.956-0.481 3.931-0.556 5.919-0.231 2.6 0.425 4.944 1.456 6.988 3.119 2.125 1.731 3.675 3.881 4.65 6.463 0.538 1.394 0.962 3.675 0.944 4.65zM4.662 27.594c1.55-0.5 3.031-0.975 4.5-1.456 0.194-0.063 0.35-0.050 0.519 0.063 0.563 0.375 1.169 0.675 1.794 0.938 2.031 0.863 4.144 1.175 6.325 0.894 2.675-0.344 5.025-1.419 7-3.288 2.488-2.356 3.819-5.244 3.938-8.656 0.113-3.344-0.962-6.281-3.206-8.775-2.131-2.369-4.806-3.719-7.962-4.056-2.744-0.294-5.313 0.3-7.688 1.725-2.031 1.225-3.588 2.894-4.669 5-1.194 2.319-1.6 4.781-1.256 7.362 0.256 1.95 0.956 3.744 2.081 5.356 0.125 0.181 0.162 0.331 0.088 0.544-0.231 0.637-0.438 1.281-0.656 1.919-0.263 0.788-0.519 1.575-0.806 2.431z"></path>
<path fill="#51c85d" style="fill: var(--color33, #51c85d)" d="M8.813 12.169c0.031-1.488 0.556-2.594 1.55-3.475 0.319-0.287 0.713-0.412 1.156-0.35 0.188 0.025 0.375 0.044 0.563 0.031 0.35-0.019 0.588 0.15 0.706 0.456 0.419 1.088 0.825 2.175 1.231 3.269 0.137 0.375-0.1 0.669-0.3 0.938-0.231 0.319-0.512 0.6-0.787 0.881-0.281 0.287-0.319 0.45-0.125 0.8 1.131 2.056 2.719 3.638 4.875 4.612 0.075 0.031 0.15 0.075 0.225 0.113 0.288 0.131 0.544 0.1 0.762-0.15 0.4-0.469 0.837-0.9 1.206-1.394 0.244-0.325 0.413-0.381 0.781-0.219 1.1 0.475 2.131 1.075 3.181 1.656 0.194 0.106 0.262 0.269 0.256 0.494-0.056 1.844-1.113 2.806-2.969 3.231-0.9 0.206-1.731-0.019-2.556-0.319-1.731-0.625-3.4-1.363-4.8-2.6-1.113-0.988-2.094-2.087-2.925-3.319-0.637-0.95-1.3-1.881-1.669-2.988-0.213-0.588-0.369-1.188-0.363-1.669z"></path>
</symbol>
<symbol id="icn-soc-yt" viewBox="0 0 32 32">

<path fill="#b70912" style="fill: var(--color34, #b70912)" d="M25.92 1.28h-21.12c-2.651 0-4.8 2.149-4.8 4.8v0 21.12c0 2.651 2.149 4.8 4.8 4.8v0h21.12c2.651 0 4.8-2.149 4.8-4.8v0-21.12c0-2.651-2.149-4.8-4.8-4.8v0z"></path>
<path fill="#fff" style="fill: var(--color8, #fff)" d="M23.040 10.243h-15.36c-1.425 0.102-2.56 1.711-2.56 6.405 0 4.822 1.134 6.316 2.56 6.408h15.36c1.425-0.102 2.56-1.711 2.56-6.405 0-4.822-1.134-6.316-2.56-6.408z"></path>
<path fill="#b70912" style="fill: var(--color34, #b70912)" d="M19.2 16.64l-6.4 3.84v-7.68z"></path>
</symbol>
<symbol id="icn-ui-cart" viewBox="0 0 32 32">

<path d="M9.6 25.6c-1.76 0-3.2 1.44-3.2 3.2s1.44 3.2 3.2 3.2c1.76 0 3.2-1.44 3.2-3.2s-1.44-3.2-3.2-3.2v0zM0 0v3.2h3.2l5.76 12.16-2.24 3.84c-0.16 0.48-0.32 1.12-0.32 1.6 0 1.76 1.44 3.2 3.2 3.2h19.2v-3.2h-18.56c-0.16 0-0.32-0.16-0.32-0.32v-0.16l1.44-2.72h11.84c1.28 0 2.24-0.64 2.72-1.6l5.76-10.4c0.32-0.32 0.32-0.48 0.32-0.8 0-0.96-0.64-1.6-1.6-1.6h-23.68l-1.44-3.2h-5.28zM25.6 25.6c-1.76 0-3.2 1.44-3.2 3.2s1.44 3.2 3.2 3.2c1.76 0 3.2-1.44 3.2-3.2s-1.44-3.2-3.2-3.2v0z"></path>
</symbol>
<symbol id="icn-ui-chevron-down" viewBox="0 0 32 32">

<path d="M24.285 11.284l-8.285 8.287-8.285-8.288c-0.395-0.395-1.034-0.395-1.429 0-0.394 0.395-0.394 1.035 0 1.43l8.999 9.002c0.394 0.395 1.034 0.395 1.428 0l8.999-9.002c0.394-0.395 0.394-1.036 0-1.431-0.393-0.393-1.033-0.393-1.427 0.002z"></path>
</symbol>
<symbol id="icn-ui-chevron-left" viewBox="0 0 32 32">

<path d="M11.262 16.714l9.002 8.999c0.395 0.394 1.035 0.394 1.431 0 0.395-0.394 0.395-1.034 0-1.428l-8.288-8.285 8.287-8.285c0.395-0.394 0.395-1.034 0-1.429-0.395-0.394-1.036-0.394-1.431 0l-9.002 8.999c-0.389 0.39-0.389 1.040 0.001 1.429z"></path>
</symbol>
<symbol id="icn-ui-chevron-right" viewBox="0 0 32 32">

<path d="M21.698 15.286l-9.002-8.999c-0.395-0.394-1.035-0.394-1.431 0s-0.395 1.034 0 1.428l8.288 8.285-8.287 8.285c-0.395 0.394-0.395 1.034 0 1.429 0.395 0.394 1.036 0.394 1.431 0l9.002-8.999c0.389-0.39 0.389-1.040-0.001-1.429z"></path>
</symbol>
<symbol id="icn-ui-chevron-up" viewBox="0 0 32 32">

<path d="M16.714 11.297c-0.389-0.389-1.039-0.389-1.429 0l-8.999 8.976c-0.394 0.394-0.394 1.033 0 1.426 0.394 0.394 1.034 0.394 1.428 0l8.286-8.263 8.285 8.264c0.395 0.394 1.034 0.394 1.429 0 0.394-0.394 0.394-1.033 0-1.426l-9-8.977z"></path>
</symbol>
<symbol id="icn-ui-close" viewBox="0 0 32 32">

<path d="M17.459 16.014l8.239-8.194c0.395-0.391 0.395-1.024 0-1.414-0.394-0.391-1.034-0.391-1.428 0l-8.232 8.187-8.308-8.309c-0.394-0.395-1.034-0.395-1.428 0-0.394 0.396-0.394 1.037 0 1.432l8.302 8.303-8.332 8.286c-0.394 0.391-0.394 1.024 0 1.414s1.034 0.391 1.428 0l8.325-8.279 8.275 8.276c0.394 0.395 1.034 0.395 1.428 0 0.394-0.396 0.394-1.037 0-1.432l-8.269-8.27z"></path>
</symbol>
<symbol id="icn-ui-d-chevron-down" viewBox="0 0 32 32">

<path d="M22.285 15.349l-6.285 6.195-6.285-6.196c-0.394-0.391-1.034-0.391-1.428 0s-0.394 1.024 0 1.414l6.999 6.899c0.379 0.375 1.048 0.377 1.429 0l6.999-6.9c0.394-0.39 0.394-1.024 0-1.414-0.395-0.389-1.035-0.389-1.429 0.002z"></path>
<path d="M15.286 16.662c0.379 0.375 1.048 0.377 1.429 0l6.999-6.899c0.394-0.391 0.394-1.024 0-1.414-0.394-0.391-1.034-0.391-1.428 0l-6.286 6.195-6.285-6.195c-0.394-0.391-1.034-0.391-1.428 0s-0.394 1.024 0 1.414l6.999 6.899z"></path>
</symbol>
<symbol id="icn-ui-d-chevron-left" viewBox="0 0 32 32">

<path d="M10.456 16l6.196-6.285c0.391-0.394 0.391-1.034 0-1.428s-1.024-0.394-1.414 0l-6.899 6.999c-0.375 0.379-0.377 1.048 0 1.429l6.9 6.999c0.39 0.394 1.024 0.394 1.414 0 0.391-0.394 0.391-1.034 0-1.428l-6.197-6.286z"></path>
<path d="M17.456 16l6.196-6.285c0.391-0.394 0.391-1.034 0-1.428s-1.024-0.394-1.414 0l-6.899 6.999c-0.375 0.379-0.377 1.048 0 1.429l6.899 6.999c0.391 0.394 1.024 0.394 1.414 0s0.391-1.034 0-1.428l-6.196-6.286z"></path>
</symbol>
<symbol id="icn-ui-d-chevron-right" viewBox="0 0 32 32">

<path d="M23.662 15.286l-6.9-6.999c-0.39-0.394-1.024-0.394-1.414 0-0.391 0.394-0.391 1.034 0 1.428l6.196 6.285-6.196 6.285c-0.391 0.394-0.391 1.034 0 1.428s1.024 0.394 1.414 0l6.899-6.999c0.377-0.379 0.378-1.048 0.001-1.428z"></path>
<path d="M16.662 15.286l-6.899-6.999c-0.391-0.394-1.024-0.394-1.414 0-0.391 0.394-0.391 1.034 0 1.428l6.195 6.285-6.196 6.285c-0.391 0.394-0.391 1.034 0 1.428s1.024 0.394 1.414 0l6.899-6.999c0.377-0.379 0.378-1.048 0.001-1.428z"></path>
</symbol>
<symbol id="icn-ui-d-chevron-up" viewBox="0 0 32 32">

<path d="M9.715 16.651l6.285-6.195 6.285 6.196c0.394 0.391 1.034 0.391 1.428 0s0.394-1.024 0-1.414l-6.999-6.899c-0.379-0.375-1.048-0.377-1.429 0l-6.999 6.9c-0.394 0.39-0.394 1.024 0 1.414 0.395 0.389 1.035 0.389 1.429-0.002z"></path>
<path d="M16.714 15.338c-0.379-0.375-1.048-0.377-1.429 0l-6.999 6.899c-0.394 0.391-0.394 1.024 0 1.414 0.394 0.391 1.034 0.391 1.428 0l6.286-6.195 6.285 6.196c0.394 0.391 1.034 0.391 1.428 0s0.394-1.024 0-1.414l-6.999-6.9z"></path>
</symbol>
<symbol id="icn-ui-like" viewBox="0 0 32 32">

<path d="M31.75 11.051c0-4.599-3.728-8.327-8.327-8.327-3.245 0-6.050 1.86-7.423 4.569-1.374-2.709-4.178-4.569-7.424-4.569-4.599-0-8.327 3.728-8.327 8.326 0 8.699 13.97 18.225 15.75 18.225s15.75-9.484 15.75-18.225z"></path>
</symbol>
<symbol id="icn-ui-location" viewBox="0 0 32 32">

<path d="M16 3.469c-4.94 0-8.945 4.005-8.945 8.945 0 5.784 7.454 16.117 8.945 16.117s8.945-10.334 8.945-16.117c0-4.941-4.005-8.945-8.945-8.945zM16 17.453c-2.796 0-5.064-2.268-5.064-5.064s2.268-5.064 5.064-5.064c2.797 0 5.064 2.268 5.064 5.064s-2.267 5.064-5.064 5.064z"></path>
</symbol>
<symbol id="icn-ui-phone" viewBox="0 0 32 32">

<path d="M16 1.6c7.94 0 14.4 6.46 14.4 14.4s-6.46 14.4-14.4 14.4c-7.94 0-14.4-6.46-14.4-14.4s6.46-14.4 14.4-14.4zM16 0c-8.836 0-16 7.163-16 16s7.164 16 16 16c8.838 0 16-7.162 16-16s-7.162-16-16-16v0z"></path>
<path d="M11.497 7.834c0.966-0.182 1.598 0.906 2.080 1.658 0.469 0.73 1.046 1.586 0.813 2.535-0.13 0.533-0.611 0.823-0.975 1.138-0.359 0.31-0.906 0.595-1.039 1.072-0.217 0.774 0.258 1.586 0.551 2.048 0.667 1.045 1.474 1.986 2.503 2.827 0.498 0.408 1.19 0.953 1.884 0.813 1.036-0.21 1.31-1.487 2.438-1.658 1.074-0.162 1.8 0.616 2.406 1.138 0.584 0.505 1.526 1.151 1.462 2.016-0.038 0.497-0.436 0.805-0.782 1.105-0.351 0.306-0.659 0.65-1.006 0.877-0.841 0.549-1.872 0.818-3.056 0.781-1.161-0.036-2.086-0.43-2.925-0.878-1.641-0.875-2.938-2.106-4.159-3.478-1.202-1.349-2.311-2.946-2.925-4.711-0.766-2.205-0.361-4.47 0.878-5.882 0.21-0.24 0.541-0.49 0.844-0.748s0.582-0.571 1.007-0.651z"></path>
</symbol>
<symbol id="icn-ui-search" viewBox="0 0 32 32">

<path d="M29.744 26.349l-5.082-5.082c1.401-2.040 2.225-4.517 2.224-7.172 0.001-3.493-1.423-6.678-3.713-8.965-2.287-2.29-5.472-3.715-8.965-3.713-3.493-0.001-6.678 1.423-8.964 3.713-2.29 2.287-3.714 5.472-3.713 8.965-0.001 3.493 1.423 6.678 3.713 8.965 2.287 2.291 5.472 3.715 8.964 3.713 2.539 0.001 4.914-0.754 6.9-2.044l5.128 5.128c0.969 0.97 2.539 0.97 3.508 0 0.97-0.968 0.97-2.539 0-3.508zM8.751 19.552c-1.4-1.404-2.259-3.318-2.26-5.457 0.001-2.139 0.86-4.053 2.26-5.457 1.404-1.401 3.318-2.259 5.456-2.261 2.139 0.001 4.052 0.86 5.457 2.26 1.4 1.405 2.259 3.318 2.26 5.457-0.001 2.139-0.86 4.053-2.26 5.457-1.404 1.401-3.318 2.259-5.457 2.26-2.139-0.001-4.052-0.86-5.457-2.26z"></path>
</symbol>
<symbol id="icn-ui-setting" viewBox="0 0 32 32">

<path d="M29.945 18.445l-1.141-1.225c0.001-0.011 0.001-0.021-0-0.037 0.024-0.273 0.041-0.549 0.052-0.824 0.003-0.079-0.001-0.165 0.001-0.244 0.002-0.211-0.001-0.415-0.010-0.62-0.004-0.089-0.009-0.172-0.015-0.261-0.005-0.136-0.012-0.271-0.022-0.413l1.144-1.217c0.546-0.581 1.537-1.353 1.233-2.088l-1.253-3.039c-0.303-0.736-1.549-0.581-2.345-0.609l-1.67-0.060c-0.126-0.151-0.262-0.295-0.393-0.44-0.005-0.005-0.011-0.014-0.017-0.022-0.047-0.049-0.086-0.102-0.133-0.15-0.071-0.077-0.152-0.151-0.225-0.226-0.106-0.106-0.211-0.215-0.32-0.318-0.178-0.171-0.366-0.333-0.551-0.493-0.008-0.008-0.020-0.014-0.026-0.019-0.010-0.010-0.019-0.021-0.029-0.031l-0.054-1.673c-0.024-0.792 0.131-2.040-0.599-2.344l-3.040-1.265c-0.732-0.304-1.509 0.687-2.088 1.228l-1.224 1.143c-0.274-0.027-0.547-0.042-0.82-0.052-0.076-0.003-0.153-0.002-0.235-0.001-0.176-0.002-0.353-0.007-0.534 0-0.228 0.007-0.457 0.022-0.684 0.041-0.029 0.002-0.059 0.002-0.082 0.003-0.016 0.003-0.028 0.001-0.045 0.004l-1.218-1.147c-0.58-0.543-1.353-1.536-2.088-1.234l-3.039 1.252c-0.736 0.303-0.58 1.551-0.609 2.345l-0.059 1.673c-0.018 0.014-0.037 0.033-0.053 0.050-0.2 0.167-0.396 0.338-0.586 0.518-0.070 0.069-0.138 0.138-0.207 0.208-0.135 0.132-0.271 0.268-0.401 0.407-0.066 0.072-0.128 0.146-0.192 0.22-0.088 0.096-0.174 0.19-0.258 0.29l-1.674 0.051c-0.792 0.025-2.040-0.131-2.344 0.6l-1.266 3.040c-0.304 0.732 0.685 1.506 1.226 2.085l1.143 1.224c-0.018 0.19-0.027 0.378-0.037 0.57 0 0.018-0.003 0.037-0.002 0.054-0.015 0.325-0.023 0.649-0.012 0.973 0.005 0.142 0.016 0.282 0.025 0.423 0.008 0.114 0.011 0.231 0.022 0.345-0.001 0.012 0 0.024 0.001 0.032l-1.146 1.221c-0.543 0.579-1.538 1.35-1.235 2.084l1.252 3.039c0.303 0.736 1.552 0.583 2.346 0.612l1.672 0.057c0.011 0.017 0.025 0.026 0.037 0.043 0.17 0.203 0.348 0.402 0.533 0.602 0.065 0.070 0.134 0.131 0.2 0.2 0.136 0.138 0.274 0.275 0.415 0.408 0.070 0.061 0.144 0.124 0.214 0.189 0.099 0.087 0.195 0.176 0.294 0.256l0.051 1.674c0.025 0.792-0.13 2.043 0.601 2.347l3.040 1.265c0.732 0.305 1.506-0.686 2.085-1.227l1.226-1.14c0.014 0 0.027-0.002 0.040-0.001 0.158 0.017 0.314 0.023 0.471 0.032 0.047 0.004 0.092 0.004 0.137 0.009 0.073 0.002 0.144 0.008 0.215 0.011 0.084 0.002 0.168-0.001 0.252-0 0.204 0.005 0.409 0 0.611-0.009 0.088-0.003 0.178-0.010 0.266-0.015 0.138-0.006 0.27-0.013 0.406-0.021l1.22 1.142c0.581 0.546 1.35 1.538 2.084 1.235l3.040-1.253c0.736-0.303 0.584-1.55 0.612-2.346l0.058-1.669c0.143-0.119 0.281-0.244 0.415-0.366 0.019-0.022 0.040-0.037 0.061-0.054 0.047-0.044 0.096-0.081 0.136-0.123 0.081-0.072 0.151-0.151 0.224-0.223 0.105-0.107 0.218-0.213 0.325-0.325 0.156-0.167 0.313-0.342 0.464-0.524 0.017-0.016 0.031-0.030 0.046-0.051 0.013-0.011 0.020-0.019 0.028-0.027l1.673-0.054c0.792-0.025 2.043 0.13 2.347-0.601l1.265-3.040c0.306-0.731-0.686-1.508-1.227-2.087zM22.688 16c0 3.693-2.994 6.688-6.688 6.688s-6.688-2.994-6.688-6.688 2.994-6.688 6.688-6.688 6.688 2.994 6.688 6.688z"></path>
</symbol>
<symbol id="icn-ui-star" viewBox="0 0 30 32">

<path d="M15.238 24.035l9.417 5.679-2.491-10.711 8.312-7.203-10.958-0.94-4.28-10.098-4.28 10.098-10.958 0.94 8.312 7.203-2.491 10.711 9.417-5.679z"></path>
</symbol>
<symbol id="icn-ui-star-outline" viewBox="0 0 30 32">

<path d="M30.476 11.8l-10.958-0.94-4.28-10.098-4.28 10.098-10.958 0.94 8.312 7.203-2.491 10.711 9.417-5.681 9.417 5.681-2.491-10.711 8.312-7.203zM15.238 21.175l-5.734 3.459 1.518-6.523-5.064-4.386 6.674-0.573 2.606-6.15 2.606 6.15 6.674 0.573-5.062 4.386 1.518 6.523-5.736-3.459z"></path>
</symbol>
</defs>
</svg>
